<svg width="48" height="49" viewBox="0 0 48 49" fill="none" xmlns="http://www.w3.org/2000/svg">
<path d="M10.66 6.80003C11.9941 6.324 13.4412 6.26389 14.8102 6.62764C16.1791 6.99139 17.4055 7.76189 18.3273 8.83734C19.2491 9.9128 19.823 11.2426 19.9731 12.6511C20.1232 14.0596 19.8425 15.4805 19.168 16.726L40.586 38.146L37.758 40.974L16.338 19.554C15.0922 20.2258 13.672 20.5044 12.2647 20.353C10.8574 20.2017 9.52893 19.6274 8.45445 18.7061C7.37996 17.7847 6.60986 16.5593 6.24561 15.1916C5.88137 13.8238 5.94009 12.3778 6.41402 11.044L10.888 15.518C11.1648 15.8046 11.4958 16.0331 11.8618 16.1903C12.2278 16.3476 12.6215 16.4303 13.0198 16.4338C13.4182 16.4372 13.8132 16.3613 14.1819 16.2105C14.5506 16.0597 14.8855 15.8369 15.1672 15.5552C15.4489 15.2735 15.6716 14.9386 15.8225 14.5699C15.9733 14.2012 16.0492 13.8062 16.0458 13.4078C16.0423 13.0095 15.9596 12.6158 15.8023 12.2498C15.6451 11.8838 15.4166 11.5528 15.13 11.276L10.658 6.79803L10.66 6.80003ZM31.394 10.568L37.758 7.03203L40.586 9.86003L37.05 16.224L33.514 16.932L29.274 21.174L26.444 18.346L30.686 14.104L31.394 10.568ZM17.958 26.832L20.786 29.66L10.18 40.266C9.81942 40.6277 9.33415 40.8376 8.82368 40.8529C8.31322 40.8682 7.81625 40.6876 7.43466 40.3482C7.05306 40.0089 6.81575 39.5363 6.77138 39.0276C6.72701 38.5188 6.87894 38.0124 7.19602 37.612L7.35202 37.438L17.958 26.832Z" fill="#2D2D2D"/>
</svg>
