<svg width="48" height="49" viewBox="0 0 48 49" fill="none" xmlns="http://www.w3.org/2000/svg">
<path d="M34 30.748V44.492C34 44.6689 33.9531 44.8427 33.864 44.9956C33.775 45.1485 33.6469 45.275 33.493 45.3622C33.3391 45.4495 33.1648 45.4943 32.9878 45.4921C32.8109 45.49 32.6377 45.4409 32.486 45.35L24 40.258L15.514 45.35C15.3621 45.441 15.1887 45.4901 15.0116 45.4921C14.8345 45.4942 14.66 45.4492 14.5061 45.3617C14.3521 45.2743 14.2241 45.1475 14.1351 44.9943C14.0462 44.8411 13.9996 44.6671 14 44.49V30.75C11.4123 28.6782 9.53195 25.8538 8.61889 22.6671C7.70582 19.4804 7.80508 16.0888 8.90295 12.961C10.0008 9.83312 12.0431 7.1235 14.7475 5.20656C17.452 3.28962 20.6851 2.26001 24 2.26001C27.3149 2.26001 30.548 3.28962 33.2524 5.20656C35.9568 7.1235 37.9991 9.83312 39.097 12.961C40.1949 16.0888 40.2941 19.4804 39.3811 22.6671C38.468 25.8538 36.5877 28.6782 34 30.75V30.748ZM18 33.094V39.194L24 35.594L30 39.194V33.094C28.0937 33.865 26.0563 34.2603 24 34.258C21.9436 34.2603 19.9063 33.865 18 33.094ZM24 30.258C27.1826 30.258 30.2348 28.9937 32.4853 26.7433C34.7357 24.4928 36 21.4406 36 18.258C36 15.0754 34.7357 12.0232 32.4853 9.77273C30.2348 7.52229 27.1826 6.25801 24 6.25801C20.8174 6.25801 17.7651 7.52229 15.5147 9.77273C13.2643 12.0232 12 15.0754 12 18.258C12 21.4406 13.2643 24.4928 15.5147 26.7433C17.7651 28.9937 20.8174 30.258 24 30.258Z" fill="#2D2D2D"/>
</svg>
