<svg width="48" height="49" viewBox="0 0 48 49" fill="none" xmlns="http://www.w3.org/2000/svg">
<path d="M40.166 30.658L42.57 32.1C42.7183 32.1888 42.841 32.3145 42.9263 32.4649C43.0115 32.6153 43.0563 32.7852 43.0563 32.958C43.0563 33.1309 43.0115 33.3008 42.9263 33.4511C42.841 33.6015 42.7183 33.7272 42.57 33.816L25.03 44.34C24.7189 44.5269 24.3628 44.6256 24 44.6256C23.6371 44.6256 23.281 44.5269 22.97 44.34L5.42995 33.816C5.28165 33.7272 5.15888 33.6015 5.07365 33.4511C4.98841 33.3008 4.9436 33.1309 4.9436 32.958C4.9436 32.7852 4.98841 32.6153 5.07365 32.4649C5.15888 32.3145 5.28165 32.1888 5.42995 32.1L7.83395 30.658L24 40.358L40.166 30.658ZM40.166 21.258L42.57 22.7C42.7183 22.7888 42.841 22.9145 42.9263 23.0649C43.0115 23.2153 43.0563 23.3852 43.0563 23.558C43.0563 23.7309 43.0115 23.9008 42.9263 24.0511C42.841 24.2015 42.7183 24.3272 42.57 24.416L24 35.558L5.42995 24.416C5.28165 24.3272 5.15888 24.2015 5.07365 24.0511C4.98841 23.9008 4.9436 23.7309 4.9436 23.558C4.9436 23.3852 4.98841 23.2153 5.07365 23.0649C5.15888 22.9145 5.28165 22.7888 5.42995 22.7L7.83395 21.258L24 30.958L40.166 21.258ZM25.028 2.87601L42.57 13.4C42.7183 13.4888 42.841 13.6145 42.9263 13.7649C43.0115 13.9153 43.0563 14.0852 43.0563 14.258C43.0563 14.4309 43.0115 14.6008 42.9263 14.7511C42.841 14.9015 42.7183 15.0272 42.57 15.116L24 26.258L5.42995 15.116C5.28165 15.0272 5.15888 14.9015 5.07365 14.7511C4.98841 14.6008 4.9436 14.4309 4.9436 14.258C4.9436 14.0852 4.98841 13.9153 5.07365 13.7649C5.15888 13.6145 5.28165 13.4888 5.42995 13.4L22.97 2.87601C23.281 2.68913 23.6371 2.59039 24 2.59039C24.3628 2.59039 24.7189 2.68913 25.03 2.87601H25.028ZM24 6.92201L11.774 14.258L24 21.594L36.226 14.258L24 6.92201Z" fill="#2D2D2D"/>
</svg>
