<svg width="48" height="49" viewBox="0 0 48 49" fill="none" xmlns="http://www.w3.org/2000/svg">
<path d="M23.9999 2.258L40.4339 5.91C41.3479 6.114 41.9999 6.924 41.9999 7.862V27.836C41.9999 31.848 39.9939 35.596 36.6559 37.82L23.9999 46.258L11.3439 37.82C8.00394 35.594 5.99994 31.848 5.99994 27.838V7.862C5.99994 6.924 6.65194 6.114 7.56594 5.91L23.9999 2.258ZM23.9999 6.356L9.99994 9.466V27.836C9.99994 30.51 11.3359 33.008 13.5619 34.492L23.9999 41.452L34.4379 34.492C36.6639 33.008 37.9999 30.512 37.9999 27.838V9.466L23.9999 6.358V6.356ZM32.9039 16.702L35.7339 19.53L23.0059 32.258L14.5199 23.772L17.3479 20.944L23.0039 26.6L32.9039 16.7V16.702Z" fill="#2D2D2D"/>
</svg>
