<svg width="1034" height="110" viewBox="0 0 1034 110" fill="none" xmlns="http://www.w3.org/2000/svg">
<mask id="mask0_117_443" style="mask-type:luminance" maskUnits="userSpaceOnUse" x="-666" y="-497" width="2246" height="1589">
<path d="M-666 -496H1579.04V1091.4H-666V-496Z" fill="white"/>
</mask>
<g mask="url(#mask0_117_443)">
<path d="M129.488 86.7196C123.123 80.3916 119.942 71.3623 119.942 59.6209V14.8049H138.464V58.9356C138.464 73.2689 144.408 80.4316 156.299 80.4316C162.091 80.4316 166.512 78.6983 169.563 75.2289C172.608 71.7623 174.136 66.3303 174.136 58.9356V14.8049H192.43V59.6209C192.43 71.3623 189.246 80.3916 182.88 86.7196C176.518 93.0476 167.619 96.2103 156.184 96.2103C144.752 96.2103 135.851 93.0476 129.488 86.7196Z" fill="white"/>
<path d="M284.124 14.8042V94.8362H268.916L229.014 46.2468V94.8362H210.721V14.8042H226.041L265.83 63.3962V14.8042H284.124Z" fill="white"/>
<path d="M303.101 14.805H321.624V94.837H303.101V14.805Z" fill="white"/>
<path d="M392.165 77.1732C395.976 74.9999 398.968 71.9706 401.141 68.0826C403.312 64.1972 404.4 59.7759 404.4 54.8212C404.4 49.8666 403.312 45.4452 401.141 41.5599C398.968 37.6719 395.976 34.6399 392.165 32.4692C388.352 30.2959 384.085 29.2106 379.36 29.2106C374.635 29.2106 370.365 30.2959 366.555 32.4692C362.744 34.6399 359.752 37.6719 357.579 41.5599C355.408 45.4452 354.323 49.8666 354.323 54.8212C354.323 59.7759 355.408 64.1972 357.579 68.0826C359.752 71.9706 362.744 74.9999 366.555 77.1732C370.365 79.3439 374.635 80.4319 379.36 80.4319C384.085 80.4319 388.352 79.3439 392.165 77.1732ZM356.893 90.8372C350.224 87.2532 345.003 82.3172 341.229 76.0292C337.456 69.7412 335.571 62.6719 335.571 54.8212C335.571 46.9706 337.456 39.8986 341.229 33.6132C345.003 27.3252 350.224 22.3892 356.893 18.8052C363.563 15.2239 371.053 13.4319 379.36 13.4319C387.667 13.4319 395.139 15.2239 401.771 18.8052C408.4 22.3892 413.621 27.3252 417.435 33.6132C421.243 39.8986 423.149 46.9706 423.149 54.8212C423.149 62.6719 421.243 69.7412 417.435 76.0292C413.621 82.3172 408.4 87.2532 401.771 90.8372C395.139 94.4186 387.667 96.2106 379.36 96.2106C371.053 96.2106 363.563 94.4186 356.893 90.8372Z" fill="white"/>
<path d="M510.5 14.8042V94.8362H495.292L455.391 46.2468V94.8362H437.097V14.8042H452.417L492.207 63.3962V14.8042H510.5Z" fill="white"/>
<path d="M564.922 79.6311C572.924 79.6311 579.311 77.4018 584.074 72.9431C588.836 68.4818 591.218 62.4444 591.218 54.8204C591.218 47.1991 588.836 41.1564 584.074 36.6978C579.311 32.2391 572.924 30.0098 564.922 30.0098H547.999V79.6311H564.922ZM529.479 14.8044H565.836C574.527 14.8044 582.204 16.4631 588.874 19.7778C595.543 23.0924 600.727 27.7618 604.423 33.7831C608.119 39.8044 609.97 46.8178 609.97 54.8204C609.97 62.8231 608.119 69.8364 604.423 75.8578C600.727 81.8791 595.543 86.5484 588.874 89.8631C582.204 93.1804 574.527 94.8364 565.836 94.8364H529.479V14.8044Z" fill="white"/>
<path d="M685.885 79.9735V94.8375H623.917V14.8055H684.397V29.6669H642.325V47.0455H679.483V61.4509H642.325V79.9735H685.885Z" fill="white"/>
<path d="M700.633 14.8042H719.153V79.7455H759.286V94.8362H700.633V14.8042Z" fill="white"/>
<path d="M778.836 29.8954H753.225V14.8047H822.969V29.8954H797.356V94.8367H778.836V29.8954Z" fill="white"/>
<path d="M875.792 63.6244L863.098 32.9818L850.408 63.6244H875.792ZM881.624 77.6858H844.464L837.376 94.8378H818.397L854.069 14.8031H872.36L908.146 94.8378H888.712L881.624 77.6858Z" fill="white"/>
<path d="M96.5219 3.98814H8.91389H8.90323V3.98014C7.37523 3.9828 5.98589 4.53214 4.98856 5.41213L4.98589 5.40681C4.05522 6.2308 3.47389 7.3428 3.47389 8.54546H3.47923V8.5588V101.375V101.38H3.47389C3.47389 102.583 4.05789 103.697 4.99122 104.521V104.529C5.98322 105.404 7.36456 105.948 8.89522 105.951V105.945H8.91389H96.5219H96.5299V105.951C98.0659 105.951 99.4526 105.404 100.447 104.527C101.378 103.708 101.959 102.591 101.962 101.388H101.954V101.375V8.5588V8.5508H101.962C101.962 7.34813 101.378 6.23347 100.442 5.40947V5.40413C99.4526 4.52946 98.0659 3.9828 96.5406 3.98014V3.98814H96.5219ZM-0.179443 8.5588V8.54546H-0.174113C-0.16878 6.24147 0.88456 4.16147 2.57256 2.67347V2.66547C4.19923 1.2308 6.44456 0.337471 8.90323 0.334808V0.326797H8.91389H96.5219H96.5406V0.334808C98.9859 0.340141 101.226 1.23347 102.855 2.66814L102.858 2.6628C104.551 4.15347 105.607 6.2388 105.607 8.5508H105.615V8.5588V101.375V101.388H105.607C105.602 103.692 104.551 105.769 102.863 107.257C101.231 108.7 98.9859 109.596 96.5299 109.596V109.604H96.5219H8.91389H8.89522V109.596C6.44722 109.593 4.20989 108.7 2.58056 107.263L2.57523 107.268C0.884559 105.777 -0.171446 103.692 -0.174113 101.38H-0.179443V101.375V8.5588Z" fill="white"/>
<path fill-rule="evenodd" clip-rule="evenodd" d="M57.4437 15.0244L94.0864 51.6671C95.8997 53.4831 95.8997 56.4511 94.0864 58.2671L57.4437 94.9071H43.3771L80.0171 58.2671C81.8357 56.4511 81.8357 53.4831 80.0197 51.6671L43.3771 15.0244H57.4437Z" fill="#FFCB00"/>
<path fill-rule="evenodd" clip-rule="evenodd" d="M33.9779 15.0244L70.6205 51.6671C72.4339 53.4831 72.4339 56.4511 70.6205 58.2671L33.9779 94.9071H9.98853L46.6285 58.2671C48.4445 56.4511 48.4445 53.4831 46.6285 51.6671L9.98853 15.0244H33.9779Z" fill="#FFCB00"/>
</g>
</svg>
