<svg width="257" height="31" viewBox="0 0 257 31" fill="none" xmlns="http://www.w3.org/2000/svg">
<path d="M36.5643 24.257C34.807 22.51 33.9287 20.0172 33.9287 16.7757V4.40321H39.0423V16.5865C39.0423 20.5436 40.6833 22.521 43.966 22.521C45.565 22.521 46.7856 22.0425 47.6279 21.0847C48.4686 20.1276 48.8904 18.628 48.8904 16.5865V4.40321H53.9407V16.7757C53.9407 20.0172 53.0617 22.51 51.3044 24.257C49.5479 26.0039 47.0912 26.8771 43.9344 26.8771C40.7783 26.8771 38.3209 26.0039 36.5643 24.257Z" fill="#575656"/>
<path d="M79.255 4.40299V26.4977H75.0565L64.0408 13.0835V26.4977H58.9905V4.40299H63.2199L74.2047 17.818V4.40299H79.255Z" fill="#575656"/>
<path d="M84.4942 4.40323H89.6079V26.498H84.4942V4.40323Z" fill="#575656"/>
<path d="M109.082 21.6215C110.134 21.0215 110.96 20.1851 111.56 19.1118C112.16 18.0391 112.46 16.8185 112.46 15.4507C112.46 14.0828 112.16 12.8622 111.56 11.7896C110.96 10.7162 110.134 9.87913 109.082 9.27987C108.03 8.67986 106.852 8.38023 105.547 8.38023C104.243 8.38023 103.064 8.67986 102.012 9.27987C100.96 9.87913 100.134 10.7162 99.534 11.7896C98.9347 12.8622 98.6351 14.0828 98.6351 15.4507C98.6351 16.8185 98.9347 18.0391 99.534 19.1118C100.134 20.1851 100.96 21.0215 102.012 21.6215C103.064 22.2207 104.243 22.5211 105.547 22.5211C106.852 22.5211 108.03 22.2207 109.082 21.6215ZM99.3448 25.3937C97.5035 24.4043 96.0621 23.0416 95.0203 21.3056C93.9786 19.5697 93.4581 17.618 93.4581 15.4507C93.4581 13.2833 93.9786 11.3309 95.0203 9.5957C96.0621 7.85974 97.5035 6.49704 99.3448 5.5076C101.186 4.51888 103.254 4.02416 105.547 4.02416C107.84 4.02416 109.903 4.51888 111.734 5.5076C113.564 6.49704 115.006 7.85974 116.059 9.5957C117.11 11.3309 117.636 13.2833 117.636 15.4507C117.636 17.618 117.11 19.5697 116.059 21.3056C115.006 23.0416 113.564 24.4043 111.734 25.3937C109.903 26.3824 107.84 26.8772 105.547 26.8772C103.254 26.8772 101.186 26.3824 99.3448 25.3937Z" fill="#575656"/>
<path d="M141.752 4.40299V26.4977H137.553L126.537 13.0835V26.4977H121.487V4.40299H125.716L136.701 17.818V4.40299H141.752Z" fill="#575656"/>
<path d="M156.776 22.3C158.985 22.3 160.748 21.6846 162.063 20.4536C163.378 19.222 164.036 17.5552 164.036 15.4504C164.036 13.3464 163.378 11.6782 162.063 10.4473C160.748 9.21633 158.985 8.60087 156.776 8.60087H152.104V22.3H156.776ZM146.991 4.40308H157.028C159.428 4.40308 161.547 4.86099 163.388 5.77608C165.23 6.69118 166.661 7.98026 167.681 9.64259C168.702 11.3049 169.213 13.2411 169.213 15.4504C169.213 17.6598 168.702 19.596 167.681 21.2583C166.661 22.9206 165.23 24.2097 163.388 25.1248C161.547 26.0406 159.428 26.4978 157.028 26.4978H146.991V4.40308Z" fill="#575656"/>
<path d="M190.171 22.3945V26.4981H173.063V4.40338H189.76V8.50621H178.145V13.304H188.403V17.2809H178.145V22.3945H190.171Z" fill="#575656"/>
<path d="M194.242 4.40299H199.355V22.3316H210.435V26.4977H194.242V4.40299Z" fill="#575656"/>
<path d="M215.832 8.56927H208.762V4.40314H228.016V8.56927H220.945V26.4979H215.832V8.56927Z" fill="#575656"/>
<path d="M242.599 17.881L239.095 9.42136L235.591 17.881H242.599ZM244.209 21.763H233.95L231.993 26.4982H226.754L236.602 4.40271H241.651L251.531 26.4982H246.166L244.209 21.763Z" fill="#575656"/>
<path d="M27.4631 1.41698H3.27685H3.2739V1.41477C2.85206 1.41551 2.4685 1.56716 2.19317 1.81011L2.19243 1.80863C1.9355 2.03612 1.77501 2.34311 1.77501 2.67514H1.77648V2.67882V28.3029V28.3043H1.77501C1.77501 28.6364 1.93623 28.9441 2.1939 29.1716V29.1738C2.46777 29.4153 2.84912 29.5654 3.27169 29.5662V29.5647H3.27685H27.4631H27.4653V29.5662C27.8894 29.5662 28.2722 29.4153 28.5468 29.1731C28.8037 28.947 28.9642 28.6386 28.9649 28.3065H28.9627V28.3029V2.67882V2.67661H28.9649C28.9649 2.34458 28.8037 2.03685 28.5453 1.80937V1.8079C28.2722 1.56642 27.8894 1.41551 27.4683 1.41477V1.41698H27.4631ZM0.766418 2.67882V2.67514H0.76789C0.769362 2.03906 1.06016 1.46483 1.52617 1.05403V1.05182C1.97525 0.65575 2.59513 0.409124 3.2739 0.408388V0.406178H3.27685H27.4631H27.4683V0.408388C28.1434 0.409861 28.7618 0.656487 29.2116 1.05256L29.2123 1.05109C29.6798 1.46262 29.9713 2.03832 29.9713 2.67661H29.9735V2.67882V28.3029V28.3065H29.9713C29.9699 28.9426 29.6798 29.5161 29.2138 29.9269C28.7632 30.3252 28.1434 30.5726 27.4653 30.5726V30.5748H27.4631H3.27685H3.27169V30.5726C2.59587 30.5718 1.9782 30.3252 1.52838 29.9284L1.52691 29.9299C1.06016 29.5183 0.768626 28.9426 0.76789 28.3043H0.766418V28.3029V2.67882Z" fill="#575656"/>
<path fill-rule="evenodd" clip-rule="evenodd" d="M16.6746 4.46381L26.7907 14.5799C27.2913 15.0812 27.2913 15.9006 26.7907 16.402L16.6746 26.5173H12.7912L22.9065 16.402C23.4086 15.9006 23.4086 15.0812 22.9073 14.5799L12.7912 4.46381H16.6746Z" fill="#FFCB00"/>
<path fill-rule="evenodd" clip-rule="evenodd" d="M10.1964 4.46381L20.3124 14.5799C20.8131 15.0812 20.8131 15.9006 20.3124 16.402L10.1964 26.5173H3.57355L13.6889 16.402C14.1902 15.9006 14.1902 15.0812 13.6889 14.5799L3.57355 4.46381H10.1964Z" fill="#FFCB00"/>
<path d="M253.126 5.23466C253.339 5.23466 253.504 5.18755 253.623 5.09331C253.741 4.99908 253.8 4.86436 253.8 4.68767C253.8 4.51172 253.741 4.37479 253.623 4.27761C253.504 4.18043 253.339 4.1311 253.126 4.1311H252.588V5.23466H253.126ZM254.562 5.34877C254.45 5.5343 254.284 5.67859 254.065 5.78166L254.84 6.96693H253.892L253.226 5.94583H253.19H252.597V6.96693H251.649V3.42951H253.19C253.67 3.42951 254.047 3.54362 254.32 3.7711C254.594 3.99933 254.731 4.30485 254.731 4.68767C254.731 4.94313 254.674 5.16325 254.562 5.34877ZM254.361 7.4727C254.76 7.23933 255.072 6.91982 255.301 6.51564C255.528 6.11147 255.642 5.66607 255.642 5.18018C255.642 4.68767 255.531 4.24374 255.31 3.84914C255.088 3.4538 254.779 3.14239 254.384 2.91417C253.989 2.68669 253.546 2.57258 253.053 2.57258C252.561 2.57258 252.117 2.68816 251.722 2.91859C251.327 3.14976 251.017 3.46558 250.792 3.86681C250.567 4.26804 250.454 4.71196 250.454 5.19785C250.454 5.68448 250.567 6.12841 250.792 6.52963C251.017 6.93012 251.325 7.24669 251.718 7.47785C252.109 7.70828 252.549 7.82387 253.035 7.82387C253.521 7.82387 253.963 7.70681 254.361 7.4727ZM254.69 2.39883C255.179 2.67859 255.564 3.06362 255.843 3.55245C256.122 4.04202 256.262 4.5846 256.262 5.18018C256.262 5.77577 256.119 6.32129 255.834 6.81675C255.548 7.31221 255.159 7.70239 254.667 7.98804C254.174 8.27368 253.63 8.4165 253.035 8.4165C252.439 8.4165 251.897 8.27368 251.408 7.98804C250.918 7.70239 250.532 7.31368 250.25 6.82117C249.967 6.32865 249.826 5.78755 249.826 5.19785C249.826 4.6089 249.967 4.06779 250.25 3.57528C250.532 3.08276 250.92 2.69405 251.412 2.4084C251.905 2.12276 252.452 1.97994 253.053 1.97994C253.655 1.97994 254.2 2.11982 254.69 2.39883Z" fill="#575656"/>
</svg>
