<svg width="23" height="18" viewBox="0 0 23 18" fill="none" xmlns="http://www.w3.org/2000/svg">
<path d="M1.3913 0H21.7391C22.0389 0 22.3265 0.105357 22.5385 0.292893C22.7505 0.48043 22.8696 0.734784 22.8696 1V17C22.8696 17.2652 22.7505 17.5196 22.5385 17.7071C22.3265 17.8946 22.0389 18 21.7391 18H1.3913C1.09149 18 0.803959 17.8946 0.591961 17.7071C0.379963 17.5196 0.260864 17.2652 0.260864 17V1C0.260864 0.734784 0.379963 0.48043 0.591961 0.292893C0.803959 0.105357 1.09149 0 1.3913 0ZM20.6087 4.238L11.6466 11.338L2.52173 4.216V16H20.6087V4.238ZM3.09939 2L11.6342 8.662L20.0457 2H3.09939Z" fill="#2D2D2D"/>
</svg>
