<svg width="50" height="50" viewBox="0 0 50 50" fill="none" xmlns="http://www.w3.org/2000/svg">
<g clip-path="url(#clip0_220_23)">
<path d="M48 25C48 37.7295 37.6754 48 25 48C12.3247 48 2 37.7295 2 25C2 12.2705 12.3247 2 25 2C37.6754 2 48 12.2705 48 25Z" fill="white" stroke="#575656" stroke-width="4"/>
<path d="M19.3077 13H12C12 13 24.6923 24.6471 24.6923 25.3529C24.6923 26.0588 12.3846 37 12.3846 37H19.3077C19.3077 37 32 26.0588 32 24.6471C32 23.2353 19.3077 13 19.3077 13Z" fill="#FFCB00"/>
<path d="M26 13H22C22 13 34 24.2941 34 25C34 25.7059 22.3077 37 22.3077 37H26.7273C26.7273 37 38 27.1176 38 25C38 22.8824 26 13 26 13Z" fill="#FFCB00"/>
</g>
<defs>
<clipPath id="clip0_220_23">
<rect width="50" height="50" fill="white"/>
</clipPath>
</defs>
</svg>
