<svg width="21" height="18" viewBox="0 0 21 18" fill="none" xmlns="http://www.w3.org/2000/svg">
<path d="M7.58771 7.682C8.64843 9.33048 10.1917 10.6957 12.0552 11.634L13.0545 10.396C13.2152 10.1969 13.4528 10.0569 13.7224 10.0023C13.9919 9.94779 14.2747 9.98254 14.5173 10.1C16.1161 10.8729 17.8817 11.3378 19.6981 11.464C19.9815 11.4839 20.2461 11.5975 20.4391 11.7823C20.6321 11.9671 20.7392 12.2094 20.7392 12.461V16.923C20.7392 17.1706 20.6355 17.4094 20.4479 17.5932C20.2604 17.777 20.0025 17.8927 19.7241 17.918C19.1249 17.973 18.5213 18 17.9131 18C8.23657 18 0.391357 11.06 0.391357 2.5C0.391357 1.962 0.421879 1.428 0.484053 0.898C0.512602 0.651697 0.643427 0.423521 0.851207 0.257634C1.05899 0.0917472 1.32895 -5.33578e-05 1.60884 2.32673e-08H6.65283C6.93721 -3.15185e-05 7.21115 0.0947515 7.42004 0.265451C7.62893 0.43615 7.75741 0.670224 7.77988 0.921C7.92257 2.52779 8.44805 4.08968 9.32179 5.504C9.45458 5.71856 9.49386 5.96874 9.4322 6.2072C9.37054 6.44565 9.21221 6.65584 8.98718 6.798L7.58771 7.682ZM4.73675 7.025L6.88457 5.668C6.27502 4.50409 5.85741 3.26884 5.64449 2H2.66353C2.65675 2.166 2.65336 2.333 2.65336 2.5C2.65223 9.956 9.48457 16 17.9131 16C18.1019 16 18.2907 15.997 18.4783 15.99V13.353C17.044 13.1646 15.6476 12.7952 14.3319 12.256L12.7979 14.156C12.1803 13.9437 11.5804 13.6931 11.0027 13.406L10.9372 13.373C8.71992 12.2567 6.88376 10.6324 5.62188 8.671L5.58457 8.613C5.26004 8.10199 4.97672 7.57134 4.73675 7.025Z" fill="#2D2D2D"/>
</svg>
