<svg width="276" height="28" viewBox="0 0 276 28" fill="none" xmlns="http://www.w3.org/2000/svg">
<path d="M41.5676 20.2309C43.5781 20.2309 45.1831 19.6706 46.3805 18.55C47.5771 17.4294 48.1763 15.9115 48.1763 13.9954C48.1763 12.0802 47.5771 10.5623 46.3805 9.44171C45.1831 8.32111 43.5781 7.76082 41.5676 7.76082H37.3149V20.2309H41.5676ZM32.6603 3.93877H41.7972C43.981 3.93877 45.911 4.35551 47.5872 5.18901C49.2635 6.02251 50.5656 7.19589 51.4945 8.70823C52.4234 10.2215 52.8883 11.9848 52.8883 13.9954C52.8883 16.0069 52.4234 17.7693 51.4945 19.2825C50.5656 20.7958 49.2635 21.9692 47.5872 22.8027C45.911 23.6362 43.981 24.052 41.7972 24.052H32.6603V3.93877Z" fill="#575656"/>
<path d="M71.9665 20.3167V24.0526H56.3932V3.93846H71.5933V7.67438H61.0191V12.041H70.3579V15.6621H61.0191V20.3167H71.9665Z" fill="#575656"/>
<path d="M75.6733 3.93913H80.3279V20.259H90.4132V24.0524H75.6733V3.93913Z" fill="#575656"/>
<path d="M95.3267 7.73155H88.8903V3.93913H106.418V7.73155H99.9813V24.0524H95.3267V7.73155Z" fill="#575656"/>
<path d="M119.693 16.2081L116.504 8.50843L113.314 16.2081H119.693ZM121.158 19.7421H111.82L110.038 24.0522H105.269L114.234 3.93901H118.831L127.824 24.0522H122.94L121.158 19.7421Z" fill="#575656"/>
<path d="M132.063 23.5063C130.693 23.0284 129.634 22.3959 128.888 21.6096L129.72 19.9722C130.448 20.7002 131.416 21.2901 132.623 21.7393C133.83 22.1893 135.074 22.4144 136.359 22.4144C138.158 22.4144 139.508 22.0847 140.409 21.4225C141.31 20.7622 141.76 19.9056 141.76 18.8516C141.76 18.0469 141.516 17.406 141.027 16.9272C140.539 16.4475 139.94 16.078 139.231 15.8205C138.522 15.5612 137.536 15.2787 136.272 14.9722C134.758 14.5897 133.552 14.2211 132.652 13.8664C131.75 13.5126 130.98 12.9709 130.339 12.2429C129.696 11.515 129.376 10.5287 129.376 9.2831C129.376 8.26808 129.644 7.34383 130.181 6.51033C130.717 5.67776 131.54 5.01189 132.652 4.51364C133.762 4.01539 135.142 3.76627 136.789 3.76627C137.939 3.76627 139.064 3.92463 140.165 4.24044C141.266 4.55717 142.22 4.99244 143.024 5.5481L142.306 7.24288C141.463 6.68814 140.562 6.27139 139.605 5.99263C138.647 5.71573 137.708 5.57589 136.789 5.57589C135.027 5.57589 133.7 5.91762 132.81 6.59645C131.919 7.27715 131.473 8.15324 131.473 9.22568C131.473 10.0295 131.718 10.6769 132.206 11.1659C132.694 11.6539 133.307 12.0272 134.045 12.2855C134.782 12.5448 135.773 12.8273 137.019 13.1339C138.494 13.4969 139.686 13.8571 140.596 14.2118C141.506 14.5656 142.277 15.1018 142.909 15.8205C143.542 16.5382 143.857 17.5106 143.857 18.7368C143.857 19.7527 143.584 20.6761 143.039 21.5086C142.492 22.3421 141.654 23.0034 140.524 23.4924C139.394 23.9804 138.005 24.224 136.359 24.224C134.864 24.224 133.432 23.9851 132.063 23.5063Z" fill="#575656"/>
<path d="M157.42 14.5989L153.31 18.7655V24.0526H151.185V3.93938H153.31V16.0936L165.12 3.93938H167.562L158.857 13.0477L168.166 24.0526H165.638L157.42 14.5989Z" fill="#575656"/>
<path d="M174.314 3.939H176.441V24.0522H174.314V3.939Z" fill="#575656"/>
<path d="M202.502 3.93913V24.0524H200.749L187.819 7.73155V24.0524H185.693V3.93913H187.446L200.404 20.259V3.93913H202.502Z" fill="#575656"/>
<path fill-rule="evenodd" clip-rule="evenodd" d="M211.182 24.0275H212.606V3.92999H211.182V24.0275Z" fill="#FFCB00"/>
<path d="M206.411 3.89408C206.56 3.89408 206.677 3.86074 206.76 3.79499C206.844 3.72831 206.886 3.63385 206.886 3.50975C206.886 3.38658 206.844 3.29026 206.76 3.22173C206.677 3.15412 206.56 3.11893 206.411 3.11893H206.034V3.89408H206.411ZM207.42 3.97373C207.34 4.10431 207.224 4.20526 207.071 4.27842L207.615 5.11006H206.949L206.482 4.39326H206.456H206.04V5.11006H205.374V2.62624H206.456C206.793 2.62624 207.058 2.70681 207.25 2.8661C207.442 3.02632 207.538 3.24118 207.538 3.50975C207.538 3.68941 207.499 3.84407 207.42 3.97373ZM207.279 5.46569C207.558 5.30177 207.778 5.07765 207.939 4.79334C208.099 4.50995 208.178 4.19692 208.178 3.85611C208.178 3.50975 208.101 3.19858 207.945 2.92074C207.788 2.64384 207.572 2.42435 207.295 2.26506C207.017 2.10484 206.706 2.02427 206.36 2.02427C206.014 2.02427 205.703 2.10577 205.425 2.26784C205.148 2.42991 204.931 2.65217 204.772 2.93371C204.615 3.21525 204.536 3.52735 204.536 3.86815C204.536 4.20989 204.615 4.52106 204.772 4.80352C204.931 5.08506 205.147 5.3064 205.422 5.46939C205.697 5.63146 206.006 5.71204 206.347 5.71204C206.688 5.71204 206.999 5.63054 207.279 5.46569ZM207.51 1.90295C207.853 2.09929 208.123 2.36971 208.319 2.7133C208.515 3.05688 208.614 3.43751 208.614 3.85611C208.614 4.27379 208.514 4.6572 208.313 5.00449C208.112 5.35271 207.839 5.62683 207.493 5.8278C207.148 6.02784 206.765 6.12878 206.347 6.12878C205.929 6.12878 205.548 6.02784 205.205 5.8278C204.861 5.62683 204.59 5.35363 204.392 5.00819C204.193 4.66275 204.094 4.28212 204.094 3.86815C204.094 3.45418 204.193 3.07448 204.392 2.72904C204.59 2.3836 204.862 2.1104 205.207 1.90943C205.554 1.70847 205.937 1.60845 206.36 1.60845C206.783 1.60845 207.166 1.70662 207.51 1.90295Z" fill="#575656"/>
<path d="M24.7771 0.938677H2.33008H2.32731V0.936825C1.93649 0.936825 1.57994 1.07759 1.32433 1.30356L1.32341 1.30264C1.0854 1.51286 0.936294 1.79811 0.936294 2.1065H0.938147V2.10928V25.8908V25.8927H0.936294C0.936294 26.2001 1.0854 26.4863 1.32526 26.6975V26.6993C1.57901 26.9234 1.93371 27.0633 2.32545 27.0642V27.0623H2.33008H24.7771H24.7789V27.0642C25.1725 27.0633 25.5281 26.9243 25.7828 26.6993C26.0208 26.4891 26.1709 26.2029 26.1709 25.8945H26.169V25.8908V2.10928V2.10743H26.1709C26.1709 1.79996 26.0208 1.51379 25.7819 1.30264C25.5281 1.07852 25.1725 0.93775 24.7817 0.936825V0.938677H24.7771ZM0 2.10928V2.1065H0.0018512C0.0027773 1.51564 0.272275 0.98313 0.704767 0.601574V0.599722C1.12244 0.232058 1.69755 0.00330734 2.32731 0.00238228V0.000528336H2.33008H24.7771H24.7817V0.00238228C25.4087 0.00423431 25.9819 0.232983 26.3996 0.600647L26.4005 0.599722C26.834 0.981279 27.1044 1.51564 27.1053 2.10743H27.1072V2.10928V25.8908V25.8945H27.1053C27.1035 26.4844 26.8349 27.017 26.4024 27.3985C25.9838 27.768 25.4087 27.9977 24.7789 27.9977V28.0005H24.7771H2.33008H2.32545V27.9977C1.69755 27.9968 1.12429 27.768 0.707546 27.4004L0.705693 27.4013C0.272275 27.0188 0.0027773 26.4844 0.0018512 25.8927H0V25.8908V2.10928Z" fill="#575656"/>
<path fill-rule="evenodd" clip-rule="evenodd" d="M14.7644 3.76633L24.1533 13.1552C24.6182 13.6201 24.6182 14.3814 24.1524 14.8463L14.7644 24.2343H11.16L20.548 14.8463C21.0138 14.3814 21.0138 13.6201 20.5489 13.1552L11.16 3.76633H14.7644Z" fill="#FFCB00"/>
<path fill-rule="evenodd" clip-rule="evenodd" d="M8.75177 3.76633L18.1406 13.1552C18.6055 13.6201 18.6055 14.3814 18.1397 14.8463L8.75177 24.2343H2.60522L11.9931 14.8463C12.458 14.3814 12.458 13.6201 11.9931 13.1552L2.60522 3.76633H8.75177Z" fill="#FFCB00"/>
<path d="M222.371 11.3484C222.722 11.1503 222.996 10.8678 223.194 10.502C223.393 10.1352 223.493 9.71849 223.493 9.25081C223.493 8.78312 223.393 8.36915 223.194 8.00612C222.996 7.64308 222.722 7.36062 222.371 7.15873C222.02 6.95591 221.631 6.85496 221.202 6.85496C220.766 6.85496 220.374 6.95591 220.028 7.15873C219.68 7.36062 219.408 7.64308 219.209 8.00612C219.011 8.36915 218.911 8.78312 218.911 9.25081C218.911 9.71849 219.011 10.1352 219.209 10.502C219.408 10.8678 219.68 11.1503 220.028 11.3484C220.374 11.5476 220.766 11.6466 221.202 11.6466C221.631 11.6466 222.02 11.5476 222.371 11.3484ZM222.826 6.52157C223.294 6.78273 223.66 7.15132 223.925 7.62641C224.19 8.10151 224.322 8.64328 224.322 9.25081C224.322 9.86667 224.19 10.4121 223.925 10.8863C223.66 11.3623 223.296 11.73 222.832 11.9912C222.369 12.2523 221.845 12.3829 221.26 12.3829C220.762 12.3829 220.312 12.2792 219.911 12.0736C219.509 11.8671 219.18 11.5642 218.923 11.1679V14.5917H218.093V6.17705H218.888V7.39211C219.138 6.98832 219.467 6.6753 219.876 6.45766C220.284 6.24003 220.746 6.12982 221.26 6.12982C221.836 6.12982 222.359 6.26133 222.826 6.52157Z" fill="#575656"/>
<path d="M227.682 6.44638C228.068 6.23616 228.545 6.13058 229.114 6.13058V6.93722L228.915 6.92518C228.269 6.92518 227.762 7.12429 227.396 7.52159C227.029 7.91889 226.847 8.47549 226.847 9.19322V12.3253H226.017V6.17781H226.812V7.38175C227.006 6.96871 227.296 6.65753 227.682 6.44638Z" fill="#575656"/>
<path d="M234.24 11.349C234.586 11.1508 234.857 10.8683 235.052 10.5025C235.246 10.1358 235.343 9.71901 235.343 9.25132C235.343 8.78364 235.246 8.36689 235.052 8.00108C234.857 7.63434 234.586 7.35188 234.24 7.15369C233.892 6.95458 233.501 6.85548 233.065 6.85548C232.628 6.85548 232.237 6.95458 231.89 7.15369C231.544 7.35188 231.27 7.63434 231.072 8.00108C230.873 8.36689 230.774 8.78364 230.774 9.25132C230.774 9.71901 230.873 10.1358 231.072 10.5025C231.27 10.8683 231.544 11.1508 231.89 11.349C232.237 11.5481 232.628 11.6472 233.065 11.6472C233.501 11.6472 233.892 11.5481 234.24 11.349ZM231.464 11.9806C230.988 11.7111 230.614 11.3397 230.342 10.8646C230.069 10.3886 229.933 9.85144 229.933 9.25132C229.933 8.65213 230.069 8.11406 230.342 7.63897C230.614 7.16388 230.988 6.79343 231.464 6.52857C231.939 6.26277 232.472 6.13034 233.065 6.13034C233.657 6.13034 234.19 6.26277 234.666 6.52857C235.142 6.79343 235.513 7.16388 235.782 7.63897C236.051 8.11406 236.185 8.65213 236.185 9.25132C236.185 9.85144 236.051 10.3886 235.782 10.8646C235.513 11.3397 235.142 11.7111 234.666 11.9806C234.19 12.2491 233.657 12.3834 233.065 12.3834C232.472 12.3834 231.939 12.2491 231.464 11.9806Z" fill="#575656"/>
<path d="M241.117 11.9509C240.962 12.0917 240.768 12.1991 240.539 12.2723C240.309 12.3464 240.069 12.3834 239.82 12.3834C239.243 12.3834 238.799 12.2278 238.487 11.9167C238.176 11.6046 238.02 11.1637 238.02 10.5951V6.87862H236.922V6.17756H238.02V4.83285H238.85V6.17756H240.72V6.87862H238.85V10.5488C238.85 10.9146 238.941 11.1934 239.124 11.3842C239.308 11.5749 239.571 11.6712 239.913 11.6712C240.085 11.6712 240.251 11.6435 240.411 11.5888C240.57 11.5342 240.708 11.4564 240.825 11.3554L241.117 11.9509Z" fill="#575656"/>
<path d="M243.296 7.41034C242.894 7.7882 242.666 8.28089 242.613 8.88934H246.972C246.917 8.28089 246.689 7.7882 246.288 7.41034C245.886 7.03249 245.386 6.84357 244.786 6.84357C244.193 6.84357 243.697 7.03249 243.296 7.41034ZM247.754 9.50891H242.613C242.659 10.147 242.904 10.6638 243.349 11.0564C243.792 11.451 244.354 11.6473 245.032 11.6473C245.413 11.6473 245.764 11.5788 246.084 11.4426C246.403 11.3065 246.679 11.1055 246.913 10.8406L247.38 11.3778C247.108 11.7056 246.767 11.9548 246.359 12.1261C245.949 12.2983 245.499 12.3835 245.008 12.3835C244.377 12.3835 243.817 12.2493 243.331 11.9798C242.844 11.7112 242.464 11.3389 242.191 10.8638C241.919 10.3887 241.783 9.85064 241.783 9.25145C241.783 8.65133 241.912 8.11326 242.175 7.63817C242.435 7.16307 242.793 6.79356 243.249 6.52776C243.705 6.2629 244.218 6.13046 244.786 6.13046C245.355 6.13046 245.865 6.2629 246.317 6.52776C246.769 6.79356 247.124 7.16122 247.38 7.63168C247.638 8.104 247.766 8.64392 247.766 9.25145L247.754 9.50891Z" fill="#575656"/>
<path d="M250.379 11.9857C249.899 11.7217 249.523 11.3494 249.251 10.8697C248.979 10.3909 248.843 9.85101 248.843 9.25181C248.843 8.6517 248.979 8.11363 249.251 7.63853C249.523 7.16344 249.899 6.793 250.379 6.52813C250.858 6.26326 251.401 6.13083 252.009 6.13083C252.539 6.13083 253.012 6.23363 253.43 6.44107C253.845 6.64667 254.175 6.94858 254.417 7.34681L253.797 7.76726C253.594 7.4635 253.338 7.23568 253.026 7.08287C252.715 6.93191 252.376 6.85597 252.009 6.85597C251.565 6.85597 251.165 6.95414 250.812 7.15325C250.457 7.35237 250.18 7.63483 249.982 8.00064C249.783 8.36645 249.684 8.7832 249.684 9.25181C249.684 9.72691 249.783 10.1455 249.982 10.5076C250.18 10.8697 250.457 11.1513 250.812 11.3494C251.165 11.5476 251.565 11.6467 252.009 11.6467C252.376 11.6467 252.715 11.5726 253.026 11.4254C253.338 11.2772 253.594 11.0512 253.797 10.7475L254.417 11.1679C254.175 11.5652 253.845 11.8671 253.423 12.0737C253.003 12.2802 252.531 12.3839 252.009 12.3839C251.401 12.3839 250.858 12.2506 250.379 11.9857Z" fill="#575656"/>
<path d="M259.348 11.9509C259.192 12.0917 258.999 12.1991 258.769 12.2723C258.539 12.3464 258.299 12.3834 258.05 12.3834C257.473 12.3834 257.03 12.2278 256.719 11.9167C256.406 11.6046 256.251 11.1637 256.251 10.5951V6.87862H255.152V6.17756H256.251V4.83285H257.081V6.17756H258.95V6.87862H257.081V10.5488C257.081 10.9146 257.171 11.1934 257.355 11.3842C257.538 11.5749 257.801 11.6712 258.144 11.6712C258.315 11.6712 258.481 11.6435 258.641 11.5888C258.8 11.5342 258.938 11.4564 259.055 11.3554L259.348 11.9509Z" fill="#575656"/>
<path d="M260.856 6.17769H261.685V12.3252H260.856V6.17769ZM260.844 4.65886C260.727 4.54217 260.669 4.40139 260.669 4.23839C260.669 4.08188 260.727 3.94576 260.844 3.82907C260.96 3.71238 261.105 3.6531 261.276 3.6531C261.447 3.6531 261.592 3.71051 261.709 3.8235C261.825 3.93556 261.884 4.0708 261.884 4.22638C261.884 4.39771 261.825 4.54217 261.709 4.65886C261.592 4.77555 261.447 4.83389 261.276 4.83389C261.105 4.83389 260.96 4.77555 260.844 4.65886Z" fill="#575656"/>
<path d="M269.165 6.17769L266.43 12.3252H265.577L262.854 6.17769H263.719L266.02 11.4139L268.347 6.17769H269.165Z" fill="#575656"/>
<path d="M271.053 7.41034C270.651 7.7882 270.423 8.28089 270.369 8.88934H274.728C274.674 8.28089 274.446 7.7882 274.045 7.41034C273.643 7.03249 273.143 6.84357 272.543 6.84357C271.95 6.84357 271.454 7.03249 271.053 7.41034ZM275.511 9.50891H270.369C270.415 10.147 270.661 10.6638 271.105 11.0564C271.549 11.451 272.11 11.6473 272.788 11.6473C273.17 11.6473 273.52 11.5788 273.839 11.4426C274.16 11.3065 274.436 11.1055 274.67 10.8406L275.137 11.3778C274.864 11.7056 274.524 11.9548 274.114 12.1261C273.706 12.2983 273.256 12.3835 272.765 12.3835C272.133 12.3835 271.574 12.2493 271.088 11.9798C270.601 11.7112 270.221 11.3389 269.948 10.8638C269.675 10.3887 269.539 9.85064 269.539 9.25145C269.539 8.65133 269.669 8.11326 269.93 7.63817C270.191 7.16307 270.55 6.79356 271.005 6.52776C271.461 6.2629 271.974 6.13046 272.543 6.13046C273.111 6.13046 273.622 6.2629 274.074 6.52776C274.525 6.79356 274.88 7.16122 275.137 7.63168C275.394 8.104 275.523 8.64392 275.523 9.25145L275.511 9.50891Z" fill="#575656"/>
<path d="M222.99 17.88H223.82V24.0275H222.99V17.88ZM222.979 16.3611C222.862 16.2444 222.804 16.1037 222.804 15.9407C222.804 15.7842 222.862 15.648 222.979 15.5313C223.095 15.4137 223.24 15.3554 223.411 15.3554C223.582 15.3554 223.726 15.4128 223.844 15.5249C223.96 15.6378 224.019 15.7731 224.019 15.9287C224.019 16.1 223.96 16.2444 223.844 16.3611C223.726 16.4778 223.582 16.5362 223.411 16.5362C223.24 16.5362 223.095 16.4778 222.979 16.3611ZM219.315 16.2908C219.132 16.4852 219.04 16.7742 219.04 17.1557V17.88H220.934V18.5819H219.063V24.0275H218.233V18.5819H217.135V17.88H218.233V17.1205C218.233 16.5593 218.395 16.1157 218.719 15.7879C219.042 15.461 219.499 15.297 220.092 15.297C220.325 15.297 220.551 15.3304 220.77 15.3971C220.988 15.4628 221.171 15.5582 221.319 15.6832L221.038 16.3028C220.797 16.1 220.493 15.999 220.127 15.999C219.769 15.999 219.497 16.0963 219.315 16.2908Z" fill="#575656"/>
<path d="M226.134 15.3554H226.964V24.0275H226.134V15.3554Z" fill="#575656"/>
<path d="M238.763 18.4996C239.203 18.9441 239.423 19.5989 239.423 20.4639V24.0284H238.593V20.5453C238.593 19.9063 238.44 19.4192 238.131 19.084C237.824 18.7496 237.389 18.582 236.828 18.582C236.189 18.582 235.687 18.7793 235.32 19.1719C234.955 19.5655 234.771 20.1092 234.771 20.8019V24.0284H233.941V20.5453C233.941 19.9063 233.788 19.4192 233.48 19.084C233.172 18.7496 232.734 18.582 232.165 18.582C231.534 18.582 231.033 18.7793 230.663 19.1719C230.293 19.5655 230.108 20.1092 230.108 20.8019V24.0284H229.278V17.88H230.073V19.0025C230.291 18.6283 230.595 18.3403 230.984 18.1375C231.374 17.9356 231.822 17.8337 232.329 17.8337C232.843 17.8337 233.288 17.943 233.667 18.1606C234.045 18.3792 234.328 18.7024 234.514 19.1312C234.741 18.7265 235.066 18.4088 235.49 18.1782C235.915 17.9485 236.399 17.8337 236.945 17.8337C237.716 17.8337 238.323 18.056 238.763 18.4996Z" fill="#575656"/>
</svg>
