<svg width="281" height="28" viewBox="0 0 281 28" fill="none" xmlns="http://www.w3.org/2000/svg">
<path d="M41.5678 20.3047C43.5792 20.3047 45.1832 19.7445 46.3806 18.6239C47.5771 17.5034 48.1763 15.9855 48.1763 14.0695C48.1763 12.1543 47.5771 10.6365 46.3806 9.51501C45.1832 8.39445 43.5792 7.83418 41.5678 7.83418H37.3152V20.3047H41.5678ZM32.6608 4.01318H41.7974C43.9821 4.01318 45.9111 4.42899 47.5873 5.26246C49.2635 6.09593 50.5655 7.26927 51.4953 8.78248C52.4242 10.2966 52.8891 12.058 52.8891 14.0695C52.8891 16.0809 52.4242 17.8432 51.4953 19.3564C50.5655 20.8696 49.2635 22.043 47.5873 22.8765C45.9111 23.7099 43.9821 24.1257 41.7974 24.1257H32.6608V4.01318Z" fill="#575656"/>
<path d="M71.9675 20.3902V24.126H56.3937V4.0125H71.5934V7.74737H61.0194V12.1148H70.358V15.7357H61.0194V20.3902H71.9675Z" fill="#575656"/>
<path d="M75.674 4.01225H80.3284V20.3325H90.4134V24.1257H75.674V4.01225Z" fill="#575656"/>
<path d="M95.3272 7.80547H88.891V4.01225H106.419V7.80547H99.9817V24.1257H95.3272V7.80547Z" fill="#575656"/>
<path d="M119.693 16.2819L116.504 8.58152L113.314 16.2819H119.693ZM121.159 19.8158H111.82L110.039 24.1257H105.269L114.234 4.01225H118.832L127.825 24.1257H122.94L121.159 19.8158Z" fill="#575656"/>
<path d="M142.852 14.601C143.905 13.7296 144.433 12.4988 144.433 10.9078C144.433 9.28071 143.905 8.03051 142.852 7.15907C141.798 6.28763 140.276 5.85144 138.284 5.85144H132.939V15.9086H138.284C140.276 15.9086 141.798 15.4734 142.852 14.601ZM144.376 5.85144C145.83 7.07757 146.558 8.76396 146.558 10.9078C146.558 13.0545 145.83 14.7353 144.376 15.9512C142.919 17.1681 140.907 17.7756 138.341 17.7756H132.939V24.1257H130.812V4.01225H138.341C140.907 4.01225 142.919 4.62532 144.376 5.85144Z" fill="#575656"/>
<path d="M151.386 4.01225H153.512V22.2865H164.775V24.1257H151.386V4.01225Z" fill="#575656"/>
<path d="M182.763 22.2865V24.1257H168.54V4.01225H182.332V5.85144H170.666V13.0063H181.068V14.8168H170.666V22.2865H182.763Z" fill="#575656"/>
<path d="M200.347 24.1257L193.853 15.2752L187.388 24.1257H184.946L192.589 13.7814L185.434 4.01225H187.877L193.94 12.2303L199.974 4.01225H202.272L195.146 13.724L202.819 24.1257H200.347Z" fill="#575656"/>
<path fill-rule="evenodd" clip-rule="evenodd" d="M211.175 24.1106H212.599V4.01287H211.175V24.1106Z" fill="#FFCB00"/>
<path d="M227.214 6.25944L224.889 12.4067H224.105L222.165 7.3698L220.225 12.4067H219.442L217.128 6.25944H217.923L219.851 11.4844L221.826 6.25944H222.539L224.503 11.4844L226.455 6.25944H227.214Z" fill="#575656"/>
<path d="M228.465 6.25919H229.295V12.4065H228.465V6.25919ZM228.453 4.74042C228.336 4.62374 228.278 4.48297 228.278 4.31906C228.278 4.16348 228.336 4.02735 228.453 3.91066C228.57 3.79398 228.713 3.73564 228.885 3.73564C229.057 3.73564 229.201 3.79213 229.318 3.90511C229.435 4.01717 229.493 4.15144 229.493 4.30795C229.493 4.47928 229.435 4.62374 229.318 4.74042C229.201 4.85711 229.057 4.91546 228.885 4.91546C228.713 4.91546 228.57 4.85711 228.453 4.74042Z" fill="#575656"/>
<path d="M236.581 6.88503C237.037 7.33325 237.266 7.98521 237.266 8.84275V12.4072H236.435V8.92425C236.435 8.28526 236.276 7.79814 235.956 7.4629C235.637 7.12766 235.181 6.96096 234.589 6.96096C233.927 6.96096 233.403 7.15729 233.017 7.55088C232.631 7.94446 232.439 8.48714 232.439 9.1817V12.4072H231.608V6.259H232.403V7.39344C232.63 7.01931 232.943 6.72852 233.345 6.522C233.746 6.31641 234.21 6.21269 234.741 6.21269C235.512 6.21269 236.126 6.43681 236.581 6.88503Z" fill="#575656"/>
<path d="M243.22 11.4314C243.566 11.2323 243.839 10.9508 244.038 10.584C244.236 10.2173 244.336 9.8015 244.336 9.33383C244.336 8.86616 244.236 8.44942 244.038 8.08362C243.839 7.7169 243.566 7.43444 243.22 7.23626C242.872 7.03715 242.485 6.93806 242.057 6.93806C241.62 6.93806 241.229 7.03715 240.881 7.23626C240.535 7.43444 240.262 7.7169 240.065 8.08362C239.865 8.44942 239.766 8.86616 239.766 9.33383C239.766 9.8015 239.865 10.2173 240.065 10.584C240.262 10.9508 240.535 11.2323 240.881 11.4314C241.229 11.6305 241.62 11.7296 242.057 11.7296C242.485 11.7296 242.872 11.6305 243.22 11.4314ZM245.153 3.73569V12.4075H244.359V11.1925C244.11 11.6046 243.781 11.9204 243.372 12.138C242.962 12.3565 242.501 12.4658 241.986 12.4658C241.409 12.4658 240.888 12.3334 240.42 12.0685C239.953 11.8037 239.587 11.4342 239.322 10.9582C239.057 10.4831 238.925 9.94133 238.925 9.33383C238.925 8.72539 239.057 8.18456 239.322 7.70949C239.587 7.23441 239.953 6.86583 240.42 6.60468C240.888 6.34352 241.409 6.21295 241.986 6.21295C242.485 6.21295 242.934 6.31667 243.336 6.52226C243.737 6.7297 244.067 7.0316 244.324 7.42796V3.73569H245.153Z" fill="#575656"/>
<path d="M247.684 12.2493C247.229 12.1048 246.872 11.9243 246.615 11.7057L246.989 11.051C247.246 11.2547 247.569 11.4195 247.959 11.5483C248.348 11.6761 248.754 11.7409 249.174 11.7409C249.736 11.7409 250.15 11.6538 250.419 11.4779C250.688 11.3029 250.823 11.0556 250.823 10.7361C250.823 10.5101 250.749 10.3323 250.6 10.2036C250.452 10.0758 250.265 9.97857 250.039 9.91189C249.813 9.84614 249.513 9.78224 249.139 9.71834C248.641 9.62573 248.24 9.53035 247.936 9.43218C247.631 9.33495 247.373 9.16918 247.159 8.93581C246.944 8.70243 246.837 8.37923 246.837 7.9662C246.837 7.45223 247.052 7.03086 247.48 6.70396C247.908 6.37613 248.504 6.21314 249.268 6.21314C249.665 6.21314 250.062 6.26592 250.46 6.37057C250.857 6.47614 251.185 6.61413 251.441 6.78545L251.079 7.45223C250.573 7.10125 249.97 6.92529 249.268 6.92529C248.738 6.92529 248.339 7.01975 248.07 7.20682C247.801 7.39296 247.667 7.63837 247.667 7.94212C247.667 8.17642 247.743 8.36349 247.895 8.50333C248.046 8.64409 248.236 8.74781 248.461 8.81264C248.687 8.87932 248.998 8.94784 249.397 9.01823C249.887 9.11083 250.281 9.20529 250.577 9.2979C250.873 9.39236 251.126 9.55165 251.337 9.77761C251.547 10.0036 251.652 10.3157 251.652 10.712C251.652 11.2501 251.428 11.6761 250.98 11.9919C250.532 12.3077 249.911 12.4651 249.116 12.4651C248.617 12.4651 248.14 12.3938 247.684 12.2493Z" fill="#575656"/>
<path d="M258.156 6.88503C258.612 7.33325 258.839 7.98521 258.839 8.84275V12.4072H258.01V8.92425C258.01 8.28526 257.849 7.79814 257.53 7.4629C257.21 7.12766 256.756 6.96096 256.163 6.96096C255.501 6.96096 254.977 7.15729 254.591 7.55088C254.206 7.94446 254.013 8.48714 254.013 9.1817V12.4072H253.183V3.73544H254.013V7.3351C254.239 6.97671 254.551 6.69981 254.948 6.50441C255.345 6.31086 255.801 6.21269 256.315 6.21269C257.086 6.21269 257.7 6.43681 258.156 6.88503Z" fill="#575656"/>
<path d="M261.095 6.25919H261.925V12.4065H261.095V6.25919ZM261.083 4.74042C260.967 4.62374 260.908 4.48297 260.908 4.31906C260.908 4.16348 260.967 4.02735 261.083 3.91066C261.2 3.79398 261.344 3.73564 261.516 3.73564C261.687 3.73564 261.832 3.79213 261.948 3.90511C262.065 4.01717 262.123 4.15144 262.123 4.30795C262.123 4.47928 262.065 4.62374 261.948 4.74042C261.832 4.85711 261.687 4.91546 261.516 4.91546C261.344 4.91546 261.2 4.85711 261.083 4.74042Z" fill="#575656"/>
<path d="M265.133 7.49278C264.731 7.87062 264.504 8.3633 264.45 8.9708H268.809C268.754 8.3633 268.526 7.87062 268.125 7.49278C267.723 7.11494 267.223 6.9251 266.623 6.9251C266.031 6.9251 265.535 7.11494 265.133 7.49278ZM269.592 9.59035H264.45C264.496 10.2293 264.741 10.7452 265.186 11.1388C265.63 11.5333 266.191 11.7296 266.868 11.7296C267.25 11.7296 267.601 11.6611 267.92 11.5249C268.239 11.3879 268.517 11.1878 268.75 10.923L269.218 11.4601C268.945 11.7879 268.604 12.037 268.195 12.2084C267.786 12.3806 267.336 12.4658 266.845 12.4658C266.214 12.4658 265.655 12.3315 265.168 12.0621C264.681 11.7935 264.301 11.4212 264.028 10.9471C263.756 10.471 263.62 9.933 263.62 9.33383C263.62 8.7328 263.749 8.19568 264.011 7.7206C264.272 7.2446 264.63 6.87509 265.087 6.61023C265.542 6.34537 266.054 6.21295 266.623 6.21295C267.192 6.21295 267.702 6.34537 268.154 6.61023C268.606 6.87509 268.96 7.24367 269.218 7.71412C269.475 8.18642 269.604 8.72539 269.604 9.33383L269.592 9.59035Z" fill="#575656"/>
<path d="M271.298 3.73593H272.128V12.4077H271.298V3.73593Z" fill="#575656"/>
<path d="M278.117 11.4314C278.464 11.2323 278.737 10.9508 278.936 10.584C279.134 10.2173 279.234 9.8015 279.234 9.33383C279.234 8.86616 279.134 8.44942 278.936 8.08362C278.737 7.7169 278.464 7.43444 278.117 7.23626C277.771 7.03715 277.383 6.93806 276.955 6.93806C276.518 6.93806 276.126 7.03715 275.78 7.23626C275.433 7.43444 275.16 7.7169 274.962 8.08362C274.763 8.44942 274.664 8.86616 274.664 9.33383C274.664 9.8015 274.763 10.2173 274.962 10.584C275.16 10.9508 275.433 11.2323 275.78 11.4314C276.126 11.6305 276.518 11.7296 276.955 11.7296C277.383 11.7296 277.771 11.6305 278.117 11.4314ZM280.052 3.73569V12.4075H279.256V11.1925C279.007 11.6046 278.678 11.9204 278.269 12.138C277.86 12.3565 277.399 12.4658 276.885 12.4658C276.308 12.4658 275.785 12.3334 275.319 12.0685C274.851 11.8037 274.484 11.4342 274.22 10.9582C273.954 10.4831 273.822 9.94133 273.822 9.33383C273.822 8.72539 273.954 8.18456 274.22 7.70949C274.484 7.23441 274.851 6.86583 275.319 6.60468C275.785 6.34352 276.308 6.21295 276.885 6.21295C277.383 6.21295 277.833 6.31667 278.234 6.52226C278.636 6.7297 278.965 7.0316 279.222 7.42796V3.73569H280.052Z" fill="#575656"/>
<path d="M223.089 17.9633H223.919V24.1106H223.089V17.9633ZM223.077 16.4445C222.961 16.3278 222.902 16.1871 222.902 16.0232C222.902 15.8676 222.961 15.7314 223.077 15.6138C223.194 15.4971 223.337 15.4388 223.51 15.4388C223.681 15.4388 223.825 15.4962 223.942 15.6083C224.059 15.7213 224.117 15.8555 224.117 16.0121C224.117 16.1834 224.059 16.3278 223.942 16.4445C223.825 16.5612 223.681 16.6196 223.51 16.6196C223.337 16.6196 223.194 16.5612 223.077 16.4445ZM219.413 16.3742C219.229 16.5686 219.138 16.8566 219.138 17.2391V17.9633H221.031V18.6643H219.162V24.1106H218.332V18.6643H217.234V17.9633H218.332V17.203C218.332 16.6427 218.493 16.1991 218.817 15.8713C219.14 15.5435 219.598 15.3805 220.19 15.3805C220.424 15.3805 220.65 15.4138 220.868 15.4805C221.086 15.5462 221.269 15.6416 221.418 15.7666L221.137 16.3862C220.895 16.1834 220.592 16.0824 220.226 16.0824C219.866 16.0824 219.596 16.1788 219.413 16.3742Z" fill="#575656"/>
<path d="M226.232 15.4388H227.062V24.1106H226.232V15.4388Z" fill="#575656"/>
<path d="M238.861 18.5828C239.301 19.0274 239.52 19.6812 239.52 20.547V24.1106H238.691V20.6276C238.691 19.9896 238.538 19.5024 238.229 19.1672C237.922 18.832 237.487 18.6653 236.926 18.6653C236.288 18.6653 235.785 18.8616 235.419 19.2552C235.052 19.6488 234.869 20.1914 234.869 20.8851V24.1106H234.04V20.6276C234.04 19.9896 233.886 19.5024 233.579 19.1672C233.27 18.832 232.832 18.6653 232.263 18.6653C231.632 18.6653 231.131 18.8616 230.761 19.2552C230.391 19.6488 230.207 20.1914 230.207 20.8851V24.1106H229.376V17.9633H230.171V19.0857C230.389 18.7116 230.693 18.4236 231.083 18.2207C231.472 18.0179 231.92 17.917 232.426 17.917C232.941 17.917 233.387 18.0253 233.765 18.2439C234.143 18.4624 234.426 18.7857 234.613 19.2144C234.838 18.8088 235.163 18.4912 235.588 18.2615C236.012 18.0318 236.498 17.917 237.043 17.917C237.814 17.917 238.421 18.1383 238.861 18.5828Z" fill="#575656"/>
<path d="M206.405 3.91137C206.554 3.91137 206.67 3.87803 206.754 3.81228C206.837 3.74653 206.879 3.65114 206.879 3.52705C206.879 3.40388 206.837 3.30757 206.754 3.23904C206.67 3.17051 206.554 3.13624 206.405 3.13624H206.027V3.91137H206.405ZM207.413 3.99194C207.334 4.12159 207.218 4.22346 207.064 4.29569L207.609 5.12824H206.943L206.475 4.41053H206.45H206.033V5.12824H205.367V2.64357H206.45C206.787 2.64357 207.051 2.72414 207.244 2.88342C207.435 3.04364 207.532 3.25849 207.532 3.52705C207.532 3.70671 207.492 3.86136 207.413 3.99194ZM207.272 5.48292C207.552 5.31901 207.772 5.0949 207.932 4.81059C208.092 4.52721 208.172 4.2142 208.172 3.8734C208.172 3.52705 208.094 3.21589 207.938 2.93806C207.783 2.66117 207.566 2.44169 207.288 2.2824C207.01 2.12219 206.699 2.04162 206.354 2.04162C206.008 2.04162 205.696 2.12312 205.418 2.28518C205.141 2.44724 204.924 2.6695 204.765 2.95103C204.608 3.23256 204.529 3.54464 204.529 3.88544C204.529 4.22716 204.608 4.53925 204.765 4.82078C204.924 5.10231 205.141 5.32457 205.416 5.48663C205.691 5.64869 205.999 5.72926 206.341 5.72926C206.682 5.72926 206.993 5.64777 207.272 5.48292ZM207.503 1.9203C207.847 2.11663 208.116 2.38705 208.312 2.73062C208.509 3.0742 208.607 3.45481 208.607 3.8734C208.607 4.29106 208.507 4.67446 208.306 5.02174C208.106 5.36994 207.833 5.64406 207.486 5.84502C207.141 6.04598 206.759 6.146 206.341 6.146C205.922 6.146 205.542 6.04598 205.198 5.84502C204.854 5.64406 204.583 5.37087 204.385 5.02544C204.187 4.68002 204.087 4.2994 204.087 3.88544C204.087 3.47148 204.187 3.09179 204.385 2.74637C204.583 2.40001 204.855 2.12775 205.201 1.92679C205.547 1.72583 205.931 1.62581 206.354 1.62581C206.776 1.62581 207.159 1.72398 207.503 1.9203Z" fill="#575656"/>
<path d="M24.7772 0.937677H2.33001H2.32723V0.935823C1.93643 0.935823 1.57989 1.07659 1.32429 1.30255L1.32336 1.30162C1.08536 1.51184 0.936264 1.79708 0.936264 2.10453H0.938115V2.10824V25.8899V25.8918H0.936264C0.936264 26.1992 1.08536 26.4854 1.32522 26.6965V26.6984C1.57896 26.9225 1.93365 27.0623 2.32538 27.0632V27.0614H2.33001H24.7772H24.7791V27.0632C25.1726 27.0623 25.5283 26.9234 25.7829 26.6984C26.0219 26.4882 26.1709 26.202 26.1709 25.8936H26.1691V25.8899V2.10824V2.10639H26.1709C26.1709 1.79893 26.0209 1.51277 25.782 1.30162C25.5283 1.07751 25.1736 0.93675 24.7818 0.935823V0.937677H24.7772ZM0 2.10824V2.10453H0.00185114C0.00277722 1.51462 0.272266 0.982128 0.70567 0.600584V0.598734C1.12241 0.231081 1.6975 0.00233841 2.32723 0.00141335V-0.000440598H2.33001H24.7772H24.7818V0.00141335C25.4088 0.00233841 25.982 0.232006 26.3997 0.599659L26.4006 0.597807C26.8349 0.980276 27.1044 1.51462 27.1054 2.10639H27.1072V2.10824V25.8899V25.8936H27.1054C27.1035 26.4844 26.8349 27.016 26.4025 27.3976C25.9839 27.7671 25.4088 27.9967 24.7791 27.9967V27.9995H24.7772H2.33001H2.32538V27.9967C1.69843 27.9958 1.12518 27.7671 0.707523 27.3994L0.70567 27.4003C0.272266 27.0179 0.00277722 26.4844 0.00185114 25.8918H0V25.8899V2.10824Z" fill="#575656"/>
<path fill-rule="evenodd" clip-rule="evenodd" d="M14.7646 3.76548L24.1531 13.1541C24.618 13.6189 24.618 14.3802 24.1531 14.8451L14.7646 24.2336H11.1603L20.5489 14.8451C21.0137 14.3802 21.0137 13.6189 20.5489 13.1541L11.1603 3.76548H14.7646Z" fill="#FFCB00"/>
<path fill-rule="evenodd" clip-rule="evenodd" d="M8.75209 3.76548L18.1407 13.1541C18.6056 13.6189 18.6056 14.3802 18.1407 14.8451L8.75209 24.2336H2.60571L11.9934 14.8451C12.4583 14.3802 12.4583 13.6189 11.9934 13.1541L2.60571 3.76548H8.75209Z" fill="#FFCB00"/>
</svg>
