<svg width="264" height="28" viewBox="0 0 264 28" fill="none" xmlns="http://www.w3.org/2000/svg">
<path d="M41.5671 20.5036C43.5786 20.5036 45.1827 19.9433 46.3801 18.8227C47.5767 17.7021 48.1758 16.1842 48.1758 14.269C48.1758 12.3539 47.5767 10.835 46.3801 9.71444C45.1827 8.59384 43.5786 8.03355 41.5671 8.03355H37.3144V20.5036H41.5671ZM32.6598 4.21149H41.7968C43.9806 4.21149 45.9106 4.62824 47.5859 5.46174C49.2622 6.29524 50.5652 7.46862 51.495 8.98188C52.4239 10.4951 52.8879 12.2575 52.8879 14.269C52.8879 16.2806 52.4239 18.042 51.495 19.5562C50.5652 21.0686 49.2622 22.2419 47.5859 23.0754C45.9106 23.9089 43.9806 24.3257 41.7968 24.3257H32.6598V4.21149Z" fill="#575656"/>
<path d="M71.9663 20.5898V24.3257H56.3928V4.21149H71.5922V7.94742H61.0187V12.315H70.3576V15.9351H61.0187V20.5898H71.9663Z" fill="#575656"/>
<path d="M75.6719 4.21217H80.3265V20.533H90.4119V24.3254H75.6719V4.21217Z" fill="#575656"/>
<path d="M95.326 8.00528H88.8905V4.21193H106.417V8.00528H99.9807V24.3252H95.326V8.00528Z" fill="#575656"/>
<path d="M119.692 16.481L116.503 8.78136L113.314 16.481H119.692ZM121.157 20.0151H111.819L110.038 24.3252H105.268L114.232 4.21193H118.831L127.823 24.3252H122.939L121.157 20.0151Z" fill="#575656"/>
<path d="M132.938 6.05143V13.953H143.339V15.7923H132.938V24.3254H130.811V4.21217H144.603V6.05143H132.938Z" fill="#575656"/>
<path d="M151.327 4.21241H153.453V24.3257H151.327V4.21241Z" fill="#575656"/>
<path d="M162.331 4.21217H164.457V22.4871H175.721V24.3254H162.331V4.21217Z" fill="#575656"/>
<path d="M202.471 4.21217V24.3254H200.431V8.2352L192.529 21.7684H191.523L183.622 8.32132V24.3254H181.581V4.21217H183.335L192.07 19.1244L200.719 4.21217H202.471Z" fill="#575656"/>
<path fill-rule="evenodd" clip-rule="evenodd" d="M211.183 24.3101H212.607V4.21253H211.183V24.3101Z" fill="#FFCB00"/>
<path d="M227.222 6.45966L224.897 12.6072H224.113L222.173 7.57006L220.233 12.6072H219.45L217.136 6.45966H217.932L219.859 11.6838L221.834 6.45966H222.547L224.511 11.6838L226.463 6.45966H227.222Z" fill="#575656"/>
<path d="M228.473 6.45915H229.303V12.6067H228.473V6.45915ZM228.461 4.93941C228.345 4.82272 228.286 4.68287 228.286 4.51895C228.286 4.36336 228.345 4.22724 228.461 4.11055C228.579 3.99386 228.723 3.93459 228.894 3.93459C229.066 3.93459 229.21 3.99107 229.326 4.10405C229.444 4.21704 229.502 4.35226 229.502 4.50784C229.502 4.67825 229.444 4.82272 229.326 4.93941C229.21 5.0561 229.066 5.11538 228.894 5.11538C228.723 5.11538 228.579 5.0561 228.461 4.93941Z" fill="#575656"/>
<path d="M236.59 7.08429C237.045 7.53253 237.274 8.18544 237.274 9.04209V12.6067H236.443V9.12359C236.443 8.48457 236.284 7.99836 235.965 7.66311C235.645 7.32786 235.19 7.16023 234.597 7.16023C233.936 7.16023 233.411 7.3575 233.025 7.75017C232.639 8.14376 232.447 8.68739 232.447 9.38105V12.6067H231.617V6.45917H232.411V7.59273C232.638 7.21858 232.951 6.92871 233.353 6.72218C233.754 6.51566 234.219 6.41194 234.75 6.41194C235.52 6.41194 236.134 6.63605 236.59 7.08429Z" fill="#575656"/>
<path d="M243.228 11.6306C243.574 11.4324 243.847 11.1499 244.046 10.7841C244.245 10.4174 244.345 10.0006 244.345 9.53293C244.345 9.06525 244.245 8.6485 244.046 8.28268C243.847 7.91594 243.574 7.63348 243.228 7.43529C242.881 7.23618 242.493 7.13708 242.065 7.13708C241.628 7.13708 241.237 7.23618 240.89 7.43529C240.544 7.63348 240.271 7.91594 240.072 8.28268C239.874 8.6485 239.775 9.06525 239.775 9.53293C239.775 10.0006 239.874 10.4174 240.072 10.7841C240.271 11.1499 240.544 11.4324 240.89 11.6306C241.237 11.8297 241.628 11.9288 242.065 11.9288C242.493 11.9288 242.881 11.8297 243.228 11.6306ZM245.162 3.93459V12.6067H244.367V11.3916C244.118 11.8038 243.789 12.1196 243.38 12.3372C242.97 12.5558 242.509 12.665 241.995 12.665C241.418 12.665 240.896 12.5326 240.429 12.2677C239.961 12.0029 239.595 11.6334 239.331 11.1573C239.065 10.6822 238.932 10.1405 238.932 9.53293C238.932 8.9254 239.065 8.38363 239.331 7.90853C239.595 7.43344 239.961 7.06485 240.429 6.80368C240.896 6.54345 241.418 6.41194 241.995 6.41194C242.493 6.41194 242.943 6.51566 243.344 6.72219C243.746 6.92871 244.075 7.23062 244.333 7.62792V3.93459H245.162Z" fill="#575656"/>
<path d="M251.163 11.6306C251.509 11.4324 251.78 11.1499 251.975 10.7841C252.17 10.4174 252.268 10.0006 252.268 9.53293C252.268 9.06525 252.17 8.6485 251.975 8.28268C251.78 7.91594 251.509 7.63348 251.163 7.43529C250.817 7.23618 250.424 7.13708 249.989 7.13708C249.551 7.13708 249.16 7.23618 248.813 7.43529C248.467 7.63348 248.195 7.91594 247.996 8.28268C247.797 8.6485 247.698 9.06525 247.698 9.53293C247.698 10.0006 247.797 10.4174 247.996 10.7841C248.195 11.1499 248.467 11.4324 248.813 11.6306C249.16 11.8297 249.551 11.9288 249.989 11.9288C250.424 11.9288 250.817 11.8297 251.163 11.6306ZM248.386 12.2622C247.912 11.9927 247.538 11.6213 247.266 11.1462C246.993 10.6711 246.856 10.1331 246.856 9.53293C246.856 8.93374 246.993 8.39567 247.266 7.92057C247.538 7.44548 247.912 7.07504 248.386 6.81017C248.862 6.54437 249.396 6.41194 249.989 6.41194C250.58 6.41194 251.114 6.54437 251.59 6.81017C252.065 7.07504 252.436 7.44548 252.706 7.92057C252.974 8.39567 253.109 8.93374 253.109 9.53293C253.109 10.1331 252.974 10.6711 252.706 11.1462C252.436 11.6213 252.065 11.9927 251.59 12.2622C251.114 12.5308 250.58 12.665 249.989 12.665C249.396 12.665 248.862 12.5308 248.386 12.2622Z" fill="#575656"/>
<path d="M263.651 6.45966L261.326 12.6072H260.542L258.603 7.57006L256.662 12.6072H255.879L253.565 6.45966H254.36L256.288 11.6838L258.263 6.45966H258.976L260.939 11.6838L262.892 6.45966H263.651Z" fill="#575656"/>
<path d="M223.097 18.1625H223.927V24.3091H223.097V18.1625ZM223.085 16.6428C222.969 16.5261 222.91 16.3853 222.91 16.2223C222.91 16.0667 222.969 15.9306 223.085 15.8139C223.202 15.6972 223.346 15.638 223.518 15.638C223.689 15.638 223.833 15.6945 223.95 15.8074C224.067 15.9204 224.125 16.0556 224.125 16.2103C224.125 16.3816 224.067 16.5261 223.95 16.6428C223.833 16.7595 223.689 16.8178 223.518 16.8178C223.346 16.8178 223.202 16.7595 223.085 16.6428ZM219.422 16.5724C219.238 16.7678 219.146 17.0568 219.146 17.4374V18.1625H221.039V18.8636H219.171V24.3101H218.34V18.8636H217.241V18.1625H218.34V17.4031C218.34 16.8419 218.502 16.3974 218.825 16.0704C219.148 15.7435 219.606 15.5796 220.199 15.5796C220.432 15.5796 220.658 15.613 220.876 15.6787C221.094 15.7454 221.277 15.8408 221.426 15.9649L221.145 16.5844C220.903 16.3816 220.6 16.2807 220.233 16.2807C219.875 16.2807 219.604 16.3789 219.422 16.5724Z" fill="#575656"/>
<path d="M226.241 15.638H227.07V24.3101H226.241V15.638Z" fill="#575656"/>
<path d="M238.869 18.7821C239.308 19.2257 239.529 19.8805 239.529 20.7455V24.3101H238.699V20.827C238.699 20.1879 238.545 19.7017 238.237 19.3656C237.929 19.0312 237.495 18.8636 236.935 18.8636C236.295 18.8636 235.793 19.0609 235.426 19.4535C235.06 19.8471 234.877 20.3908 234.877 21.0835V24.3101H234.048V20.827C234.048 20.1879 233.894 19.7017 233.586 19.3656C233.279 19.0312 232.84 18.8636 232.272 18.8636C231.64 18.8636 231.139 19.0609 230.769 19.4535C230.399 19.8471 230.214 20.3908 230.214 21.0835V24.3101H229.384V18.1625H230.179V19.2841C230.397 18.9099 230.701 18.6219 231.091 18.4191C231.48 18.2172 231.928 18.1153 232.435 18.1153C232.95 18.1153 233.395 18.2246 233.773 18.4431C234.15 18.6617 234.433 18.984 234.621 19.4128C234.846 19.0081 235.172 18.6904 235.596 18.4598C236.021 18.2301 236.506 18.1153 237.052 18.1153C237.823 18.1153 238.429 18.3376 238.869 18.7821Z" fill="#575656"/>
<path d="M206.412 3.9274C206.561 3.9274 206.678 3.89406 206.761 3.82831C206.845 3.76256 206.886 3.66717 206.886 3.54307C206.886 3.4199 206.845 3.32358 206.761 3.25505C206.678 3.18744 206.561 3.15318 206.412 3.15318H206.034V3.9274H206.412ZM207.421 4.00705C207.341 4.13763 207.225 4.2395 207.072 4.31174L207.616 5.14431H206.95L206.483 4.42658H206.457H206.041V5.14431H205.375V2.65956H206.457C206.794 2.65956 207.059 2.74013 207.251 2.90035C207.443 3.05964 207.539 3.2745 207.539 3.54307C207.539 3.72273 207.5 3.87739 207.421 4.00705ZM207.28 5.49901C207.559 5.33509 207.779 5.11097 207.939 4.82666C208.1 4.54327 208.179 4.23024 208.179 3.88943C208.179 3.54307 208.102 3.2319 207.946 2.95406C207.789 2.67716 207.573 2.45859 207.296 2.29838C207.018 2.13816 206.707 2.05851 206.361 2.05851C206.015 2.05851 205.704 2.13908 205.426 2.30115C205.149 2.46322 204.931 2.68549 204.773 2.96703C204.616 3.24857 204.536 3.56066 204.536 3.90147C204.536 4.24321 204.616 4.55438 204.773 4.83685C204.931 5.11838 205.148 5.34065 205.423 5.50272C205.698 5.66479 206.007 5.74536 206.348 5.74536C206.689 5.74536 207 5.66386 207.28 5.49901ZM207.511 1.93627C207.853 2.1326 208.124 2.40303 208.32 2.74661C208.516 3.0902 208.615 3.47083 208.615 3.88943C208.615 4.30711 208.515 4.69052 208.314 5.03781C208.113 5.38603 207.84 5.66016 207.494 5.86112C207.149 6.06116 206.766 6.16211 206.348 6.16211C205.93 6.16211 205.549 6.06116 205.206 5.86112C204.862 5.66016 204.591 5.38695 204.392 5.04152C204.194 4.69608 204.094 4.31544 204.094 3.90147C204.094 3.48843 204.194 3.1078 204.392 2.76236C204.591 2.41692 204.863 2.14372 205.208 1.94275C205.555 1.74271 205.938 1.64176 206.361 1.64176C206.784 1.64176 207.166 1.73993 207.511 1.93627Z" fill="#575656"/>
<path d="M24.7772 0.938124H2.33009H2.32732V0.936272C1.9365 0.936272 1.57994 1.07704 1.32434 1.30301L1.32341 1.30209C1.0854 1.51231 0.936297 1.79756 0.936297 2.10502H0.93815V2.10873V25.8903V25.8922H0.936297C0.936297 26.1996 1.0854 26.4858 1.32526 26.697V26.6988C1.57902 26.9229 1.93372 27.0628 2.32546 27.0637V27.0618H2.33009H24.7772H24.779V27.0637C25.1726 27.0628 25.5282 26.9239 25.7829 26.6979C26.0219 26.4886 26.171 26.2024 26.171 25.894H26.1691V25.8903V2.10873V2.10687H26.171C26.171 1.79941 26.0209 1.51324 25.782 1.30209C25.5282 1.07797 25.1735 0.937197 24.7818 0.936272V0.938124H24.7772ZM0 2.10873V2.10502H0.0018512C0.00277731 1.51509 0.272276 0.982576 0.705695 0.601019V0.599169C1.12245 0.231503 1.69756 0.0027523 2.32732 0.00182724V-2.67029e-05H2.33009H24.7772H24.7818V0.00182724C25.4088 0.0027523 25.982 0.232428 26.3997 0.600094L26.4006 0.599169C26.8341 0.980726 27.1045 1.51509 27.1054 2.10687H27.1073V2.10873V25.8903V25.894H27.1054C27.1036 26.484 26.835 27.0165 26.4025 27.398C25.9839 27.7675 25.4088 27.9972 24.779 27.9972V28H24.7772H2.33009H2.32546V27.9972C1.69756 27.9963 1.12522 27.7675 0.707548 27.3999L0.705695 27.4008C0.272276 27.0183 0.00277731 26.484 0.0018512 25.8922H0V25.8903V2.10873Z" fill="#575656"/>
<path fill-rule="evenodd" clip-rule="evenodd" d="M14.7646 3.76592L24.1535 13.1548C24.6184 13.6197 24.6184 14.3801 24.1526 14.8459L14.7646 24.2339H11.1602L20.5481 14.8459C21.014 14.3801 21.014 13.6197 20.5491 13.1548L11.1602 3.76592H14.7646Z" fill="#FFCB00"/>
<path fill-rule="evenodd" clip-rule="evenodd" d="M8.75194 3.76592L18.1409 13.1548C18.6058 13.6197 18.6058 14.3801 18.1399 14.8459L8.75194 24.2339H2.60535L11.9933 14.8459C12.4582 14.3801 12.4582 13.6197 11.9933 13.1548L2.60535 3.76592H8.75194Z" fill="#FFCB00"/>
</svg>
