<svg width="56" height="57" viewBox="0 0 56 57" fill="none" xmlns="http://www.w3.org/2000/svg">
<rect y="0.5" width="56" height="56" rx="28" fill="#FFCB00"/>
<path d="M29.3755 38.3002C18.8523 38.3002 12.8501 30.9428 12.6 18.7002H17.8712C18.0443 27.686 21.9304 31.4922 25.0085 32.277V18.7002H29.9719V26.4499C33.0115 26.1164 36.205 22.5849 37.2823 18.7002H42.2457C41.8397 20.7149 41.0305 22.6225 39.8686 24.3037C38.7067 25.9849 37.2172 27.4035 35.4932 28.4708C37.4176 29.446 39.1174 30.8263 40.4803 32.5206C41.8432 34.215 42.8383 36.1848 43.4 38.3002H37.9364C37.4322 36.4628 36.4075 34.8181 34.9907 33.5721C33.5739 32.3262 31.828 31.5344 29.9719 31.296V38.3002H29.3755Z" fill="#282C35"/>
</svg>
