<svg width="56" height="57" viewBox="0 0 56 57" fill="none" xmlns="http://www.w3.org/2000/svg">
<rect y="0.5" width="56" height="56" rx="28" fill="#FFCB00"/>
<path d="M39.0976 17.3876C36.3317 14.6313 32.6439 13.1001 28.7512 13.1001C20.6585 13.1001 14.1024 19.6334 14.1024 27.698C14.1024 30.2501 14.8195 32.8022 16.0488 34.9459L14 42.5001L21.7854 40.4584C23.9366 41.5813 26.2927 42.1938 28.7512 42.1938C36.8439 42.1938 43.4 35.6605 43.4 27.5959C43.2976 23.8188 41.8634 20.1438 39.0976 17.3876ZM35.8195 32.9043C35.5122 33.7209 34.078 34.5376 33.361 34.6397C32.7463 34.7418 31.9268 34.7418 31.1073 34.5376C30.5951 34.3334 29.878 34.1293 29.0585 33.7209C25.3707 32.1897 23.0146 28.5147 22.8098 28.2084C22.6049 28.0043 21.2732 26.2688 21.2732 24.4313C21.2732 22.5938 22.1951 21.7772 22.5024 21.3688C22.8098 20.9605 23.2195 20.9605 23.5268 20.9605C23.7317 20.9605 24.039 20.9605 24.2439 20.9605C24.4488 20.9605 24.7561 20.8584 25.0634 21.573C25.3707 22.2876 26.0878 24.1251 26.1902 24.2272C26.2927 24.4313 26.2927 24.6355 26.1902 24.8397C26.0878 25.0438 25.9854 25.248 25.7805 25.4522C25.5756 25.6563 25.3707 25.9626 25.2683 26.0647C25.0634 26.2688 24.8585 26.473 25.0634 26.7793C25.2683 27.1876 25.9854 28.3105 27.1122 29.3313C28.5463 30.5563 29.6732 30.9647 30.0829 31.1688C30.4927 31.373 30.6976 31.2709 30.9024 31.0668C31.1073 30.8626 31.8244 30.0459 32.0293 29.6376C32.2341 29.2293 32.5415 29.3313 32.8488 29.4334C33.1561 29.5355 35 30.4543 35.3073 30.6584C35.7171 30.8626 35.9219 30.9647 36.0244 31.0668C36.1268 31.373 36.1268 32.0876 35.8195 32.9043Z" fill="#282C35"/>
</svg>
